<?xml version="1.0" encoding="iso-8859-1"?>
<!-- Generator: Adobe Illustrator 19.0.0, SVG Export Plug-In . SVG Version: 6.00 Build 0)  -->
<svg version="1.1" id="Capa_1" xmlns="http://www.w3.org/2000/svg" xmlns:xlink="http://www.w3.org/1999/xlink" x="0px" y="0px"
	 viewBox="0 0 512 512" style="enable-background:new 0 0 512 512;" xml:space="preserve">
<path style="fill:#8CE0FF;" d="M166.139,428.223V325.785l2.302,0.341c11.531,1.711,23.45,2.578,35.424,2.578
	c31.297,0,61.771-5.95,88.129-17.206l1.18-0.504l51.461,46.383l-8.211-73.732l0.745-0.689
	c20.601-19.045,31.491-41.572,31.491-65.146c0-61.147-73.927-110.893-164.794-110.893c-11.997,0-23.914,0.87-35.423,2.588
	l-2.304,0.343V59.382h270.958v368.841H166.139z"/>
<path style="fill:#5A6B96;" d="M162.244,503.969c-19.828,0-35.96-16.132-35.96-35.96V315.669l2.661,0.918
	c12.507,4.309,25.795,7.518,39.495,9.539l1.715,0.253v97.828h262.927V63.398H170.155v45.856l-1.716,0.252
	c-13.701,2.012-26.988,5.217-39.493,9.529l-2.662,0.919V43.992c0-19.828,16.132-35.96,35.96-35.96h278.749
	c19.828,0,35.96,16.132,35.96,35.96v424.016c0,19.828-16.132,35.96-35.96,35.96H162.244z"/>
<g>
	<path style="fill:#44C973;" d="M293.707,246.342c-14.57,0-26.423-11.854-26.423-26.423s11.853-26.422,26.423-26.422
		s26.423,11.853,26.423,26.422S308.277,246.342,293.707,246.342z"/>
	<path style="fill:#44C973;" d="M203.866,246.342c-14.575,0-26.433-11.854-26.433-26.423s11.858-26.422,26.433-26.422
		c14.57,0,26.423,11.853,26.423,26.422S218.436,246.342,203.866,246.342z"/>
	<path style="fill:#44C973;" d="M114.015,246.342c-14.57,0-26.423-11.854-26.423-26.423s11.853-26.422,26.423-26.422
		c14.576,0,26.433,11.853,26.433,26.422S128.59,246.342,114.015,246.342z"/>
</g>
<path style="fill:#EFEFEF;" d="M292.389,315.691c-26.578,11.144-57.154,17.029-88.523,17.029c-12.172,0-24.288-0.882-36.014-2.621
	c-13.943-2.057-27.474-5.326-40.215-9.716c-57.112-19.676-92.591-58.979-92.591-102.572s35.479-82.896,92.591-102.572
	c12.739-4.393,26.271-7.659,40.218-9.706c11.699-1.746,23.817-2.631,36.011-2.631c93.082,0,168.809,51.548,168.809,114.909
	c0,24.434-11.074,47.721-32.036,67.402l9.157,82.221L292.389,315.691z M293.707,197.512c-12.355,0-22.408,10.052-22.408,22.407
	c0,12.356,10.052,22.408,22.408,22.408c12.355,0,22.408-10.052,22.408-22.408C316.115,207.564,306.063,197.512,293.707,197.512z
	 M203.866,197.512c-12.361,0-22.418,10.052-22.418,22.407c0,12.356,10.056,22.408,22.418,22.408
	c12.356,0,22.408-10.052,22.408-22.408C226.274,207.564,216.222,197.512,203.866,197.512z M114.015,197.512
	c-12.355,0-22.408,10.052-22.408,22.407c0,12.356,10.052,22.408,22.408,22.408c12.361,0,22.418-10.052,22.418-22.408
	C136.433,207.564,126.377,197.512,114.015,197.512z"/>
<path d="M440.993,0H162.244c-24.257,0-43.992,19.735-43.992,43.992v66.125c-56.467,21.575-91.236,62.356-91.236,107.694
	s34.77,86.118,91.236,107.693v142.505c0,24.257,19.735,43.992,43.992,43.992h278.749c24.257,0,43.992-19.735,43.992-43.992V43.992
	C484.984,19.735,465.249,0,440.993,0z M47.094,217.811c0-38.294,32.365-73.231,84.47-91.182c12.034-4.15,24.833-7.237,38.065-9.18
	c11.117-1.658,22.636-2.5,34.238-2.5c42.568,0,82.458,11.131,112.319,31.342c28.66,19.399,44.445,44.798,44.445,71.519
	c0,21.275-9.997,41.763-28.912,59.249c-2.342,2.164-3.515,5.314-3.162,8.482l5.759,51.72l-34.809-31.375
	c-1.88-1.695-4.286-2.582-6.723-2.582c-1.33,0-2.671,0.265-3.941,0.807c-25.369,10.834-54.753,16.561-84.975,16.561
	c-11.581,0-23.103-0.838-34.246-2.491c-0.002-0.001-0.005-0.001-0.008-0.001c-13.21-1.949-26.012-5.041-38.051-9.188
	C79.459,291.043,47.094,256.104,47.094,217.811z M178.186,339.461c8.462,0.85,17.058,1.29,25.68,1.29
	c30.577,0,60.464-5.424,86.877-15.73l49.751,44.842c1.886,1.7,4.293,2.582,6.724,2.582c1.56,0,3.131-0.363,4.581-1.107
	c3.709-1.903,5.856-5.901,5.395-10.043l-8.136-73.052c20.728-20.64,31.649-44.894,31.649-70.432
	c0-33.592-18.918-64.898-53.268-88.147c-33.149-22.435-77.035-34.792-123.574-34.792c-8.636,0-17.233,0.441-25.68,1.293V71.429
	H425.05v344.747H178.186L178.186,339.461L178.186,339.461z M464.906,468.008c0,13.187-10.728,23.913-23.913,23.913H162.244
	c-13.186,0-23.913-10.728-23.913-23.913v-135.93c6.456,1.779,13.061,3.291,19.777,4.529v89.608c0,5.544,4.495,10.039,10.039,10.039
	H435.09c5.545,0,10.039-4.496,10.039-10.039V61.39c0-5.544-4.495-10.039-10.039-10.039H168.147c-5.545,0-10.039,4.496-10.039,10.039
	v37.629c-6.717,1.235-13.322,2.745-19.777,4.523v-59.55c0-13.187,10.728-23.913,23.913-23.913h278.749
	c13.186,0,23.913,10.728,23.913,23.913L464.906,468.008L464.906,468.008z"/>
<path d="M435.09,453.773h-29.064c-5.545,0-10.039,4.496-10.039,10.039c0,5.544,4.495,10.039,10.039,10.039h29.064
	c5.545,0,10.039-4.496,10.039-10.039C445.129,458.268,440.634,453.773,435.09,453.773z"/>
<path d="M293.707,254.374c18.998,0,34.455-15.456,34.455-34.455s-15.456-34.454-34.455-34.454
	c-18.998,0-34.455,15.456-34.455,34.454S274.709,254.374,293.707,254.374z M293.707,205.543c7.927,0,14.376,6.449,14.376,14.375
	c0,7.927-6.449,14.376-14.376,14.376c-7.927,0-14.376-6.449-14.376-14.376C279.331,211.992,285.78,205.543,293.707,205.543z"/>
<path d="M203.866,254.374c18.998,0,34.455-15.456,34.455-34.455s-15.456-34.454-34.455-34.454
	c-19.003,0-34.465,15.456-34.465,34.454S184.863,254.374,203.866,254.374z M203.866,205.543c7.927,0,14.376,6.449,14.376,14.375
	c0,7.927-6.449,14.376-14.376,14.376c-7.932,0-14.386-6.449-14.386-14.376C189.48,211.992,195.933,205.543,203.866,205.543z"/>
<path d="M148.48,219.919c0-18.998-15.46-34.454-34.465-34.454c-18.998,0-34.455,15.456-34.455,34.454s15.456,34.455,34.455,34.455
	C133.02,254.374,148.48,238.916,148.48,219.919z M114.015,234.295c-7.927,0-14.376-6.449-14.376-14.376
	c0-7.927,6.449-14.375,14.376-14.375c7.933,0,14.386,6.449,14.386,14.375C128.402,227.846,121.948,234.295,114.015,234.295z"/>
<path d="M279.621,369.443h-75.76c-5.545,0-10.039,4.496-10.039,10.039c0,5.544,4.495,10.039,10.039,10.039h75.76
	c5.545,0,10.039-4.496,10.039-10.039C289.66,373.939,285.166,369.443,279.621,369.443z"/>
<path d="M306.392,369.423c-12.919,0-12.941,20.078,0,20.078C319.311,389.502,319.333,369.423,306.392,369.423z"/>
<g>
</g>
<g>
</g>
<g>
</g>
<g>
</g>
<g>
</g>
<g>
</g>
<g>
</g>
<g>
</g>
<g>
</g>
<g>
</g>
<g>
</g>
<g>
</g>
<g>
</g>
<g>
</g>
<g>
</g>
</svg>
