<svg xmlns="http://www.w3.org/2000/svg" xmlns:xlink="http://www.w3.org/1999/xlink" viewBox="0 0 1921.78 1093.08"><defs><style>.cls-1{fill:url(#linear-gradient);}</style><linearGradient id="linear-gradient" x1="1364.11" y1="300.31" x2="342.39" y2="801.17" gradientUnits="userSpaceOnUse"><stop offset="0" stop-color="#370558"/><stop offset="0.18" stop-color="#2e075b"/><stop offset="0.66" stop-color="#1c0b61"/><stop offset="1" stop-color="#150c63"/></linearGradient></defs><title>Layer 1 (2)</title><g id="Layer_2" data-name="Layer 2"><g id="Layer_1-2" data-name="Layer 1"><path class="cls-1" d="M1920,525.7C1916-41.3,0,.7,0,.7V485.79a146.34,146.34,0,0,1,71-38.2c40-8.75,76.23,6.13,108,29.58,27.66,20.41,49.91,61.42,88.36,60.92,40.21-.52,64.14-8.33,102.66,11.47,37.83,19.43,67.85,54.22,77,96.23A147,147,0,0,1,335,820.81c-67.44,14.76-111.88-32.71-158.73-72.56-5.79-4.93-11.7-9.93-18.65-13C127.22,721.68,0,758.67,0,696.58V1092.7H20.62C88.44,988.23,220.3,917.36,371.86,917.36c63.79,0,118.42,16.58,179,34.68,8.33,2.49,16.83,5,25.51,4.67,9.76-.38,19-4.31,28.06-7.89,102.2-40.3,219.12-41.93,322.4-4.49,9.73,3.52,19.55,7.43,29.88,8,28.78,1.46,57.76-20.73,85.08-28a435.23,435.23,0,0,1,111.84-14.42c136.22,0,266.35,66.52,338.54,183.13l43.53.13c-7.45-112.19,103.22-186.27,206.06-186.27,77.23,0,144.52,35.69,179.86,88.5C1922,917.5,1921.78,777.53,1920,525.7Z"/></g></g></svg>