<svg xmlns="http://www.w3.org/2000/svg" xmlns:xlink="http://www.w3.org/1999/xlink" viewBox="0 0 1934.61 1098.87"><defs><style>.cls-1{fill:url(#linear-gradient);}</style><linearGradient id="linear-gradient" x1="1365.94" y1="291.86" x2="350.73" y2="789.53" gradientUnits="userSpaceOnUse"><stop offset="0" stop-color="#370558"/><stop offset="0.18" stop-color="#2e075b"/><stop offset="0.66" stop-color="#1c0b61"/><stop offset="1" stop-color="#150c63"/></linearGradient></defs><title>Layer 1</title><g id="Layer_2" data-name="Layer 2"><g id="Layer_1-2" data-name="Layer 1"><path class="cls-1" d="M1923,525.7C1919-41.3,3,.7,3,.7V485.79a146.3,146.3,0,0,1,71-38.2c40-8.75,76.22,6.13,108,29.58,27.66,20.41,49.91,61.42,88.36,60.92,40.21-.52,64.14-8.33,102.66,11.47,37.82,19.43,67.84,54.22,77,96.23a147,147,0,0,1-112.16,175c-67.44,14.76-111.88-32.71-158.73-72.56-5.8-4.93-11.7-9.93-18.65-13C130.19,721.68,3,758.67,3,696.59c0,69.75.45,139.51.52,209.31,0,33.2-3.82,66.32-3.47,99.58.18,17.16.81,111.06,36.35,73,38.23-40.9,75.2-71.26,118-105.51,67-37.34,143.9-55.64,220.45-55.64,63.79,0,118.41,16.58,179,34.68,8.32,2.49,16.83,5,25.51,4.67,9.76-.38,19-4.31,28.06-7.89,102.2-40.3,219.12-41.93,322.4-4.49,9.73,3.52,19.55,7.43,29.88,8,28.78,1.46,57.76-20.73,85.08-28a435.21,435.21,0,0,1,111.83-14.42c75.78,0,151.46,20.83,215.91,60.86,49.41,30.68,82.12,71.71,121,113.77,4.69,5.08,9.66,10.28,16.11,12.77,23.29,9,30.43-20.81,33.23-36.28,7.11-39.31,24.71-75.18,55.28-101.22,40.14-34.19,94-52.91,146.62-52.91,37.52,0,72,15,104.11,33.16,15.8,8.94,74.37,61.42,80.48,28.41,5.49-29.65,6.07-55.29,4.46-85.47-2.2-39.09-9.39-77.89-9.64-117.09C1923.67,685.78,1923.53,605.74,1923,525.7Z"/></g></g></svg>